<svg width="24" height="24" viewBox="0 0 24 24" fill="none" xmlns="http://www.w3.org/2000/svg">
    <path fill-rule="evenodd" clip-rule="evenodd"
        d="M14.3131 2.31294C14.6128 2.62984 14.6725 3.10441 14.4607 3.48568C14.4464 3.51153 14.432 3.53723 14.4178 3.56277C14.1269 4.08504 13.8694 4.54725 13.8781 5.1256C13.8863 5.66548 14.275 6.64752 15.5648 7.73574C17.3104 9.20864 18.1733 11.0244 18.6 12.4472C18.8138 13.1602 18.9211 13.784 18.9752 14.2342C19.0024 14.4597 19.0163 14.643 19.0234 14.7738C19.027 14.8392 19.0289 14.8916 19.0299 14.9297C19.0304 14.9488 19.0307 14.9643 19.0308 14.976L19.031 14.9909L19.031 14.9962L19.031 14.9983C19.031 14.9983 19.031 15 18.031 15H19.031C19.031 18.866 15.897 22 12.031 22C8.16501 22 5.03101 18.866 5.03101 15C5.03101 13.0708 5.30182 11.3872 5.68632 10.1373C5.87743 9.51606 6.10637 8.97001 6.3653 8.54645C6.49459 8.33495 6.6467 8.1286 6.82594 7.95593C6.99807 7.79011 7.25247 7.60021 7.58927 7.52443C7.86412 7.46259 8.1523 7.51954 8.38295 7.6813C8.6136 7.84305 8.76533 8.09459 8.80082 8.37406C8.83288 8.62658 8.93779 8.99636 9.10477 9.38677C9.09643 8.72353 9.14544 8.0194 9.28102 7.31185C9.65871 5.34067 10.7301 3.27308 13.1505 2.10014C13.543 1.90993 14.0135 1.99605 14.3131 2.31294ZM17.031 15.0027C17.0296 17.7629 14.7915 20 12.031 20C9.26958 20 7.03101 17.7615 7.03101 15C7.03101 13.2915 7.26603 11.8401 7.57325 10.8069C7.65202 10.9513 7.73577 11.0928 7.82402 11.2296C8.32657 12.0087 9.21678 13 10.4755 13C10.7905 13 11.0872 12.8515 11.276 12.5993C11.4648 12.3471 11.5237 12.0206 11.4349 11.7183C11.1754 10.8344 10.9463 9.24848 11.2453 7.68822C11.3728 7.02257 11.5923 6.37519 11.9403 5.7881C12.1428 6.90179 12.8522 8.06382 14.275 9.26433C15.6405 10.4164 16.3331 11.8506 16.6843 13.0216C16.8593 13.6055 16.9464 14.1145 16.9895 14.4729C17.011 14.6517 17.0214 14.7916 17.0264 14.883C17.0289 14.9287 17.0301 14.9621 17.0306 14.982L17.031 15.0016L17.031 15.0027Z"
        fill="currentColor" />
</svg>
    