<svg width="24" height="24" viewBox="0 0 24 24" fill="none" xmlns="http://www.w3.org/2000/svg">
    <path fill-rule="evenodd" clip-rule="evenodd"
        d="M14 2H6C3.79086 2 2 3.79086 2 6V14C2 16.2091 3.79086 18 6 18C6 20.2091 7.79086 22 10 22H13.5H18C20.2091 22 22 20.2091 22 18V10C22 7.79086 20.2091 6 18 6C18 3.79086 16.2091 2 14 2ZM18 8V14C18 16.2091 16.2091 18 14 18H8C8 19.1046 8.89543 20 10 20H13.5H18C19.1046 20 20 19.1046 20 18V10C20 8.89543 19.1046 8 18 8ZM4 6C4 4.89543 4.89543 4 6 4H14C15.1046 4 16 4.89543 16 6V14C16 15.1046 15.1046 16 14 16H6C4.89543 16 4 15.1046 4 14V6Z"
        fill="currentColor" />
    <path
        d="M13.5 8.49948C13.8254 8.04414 13.7274 7.40585 13.2812 7.07383C12.8349 6.74181 12.2094 6.84178 11.884 7.29712L9.7426 10.2937L8.97604 9.30571C8.63323 8.86387 8.00431 8.78925 7.57129 9.13904C7.13827 9.48883 7.06514 10.1306 7.40795 10.5724L8.99128 12.6132C9.18527 12.8632 9.48266 13.0063 9.79513 13C10.1076 12.9937 10.3992 12.8387 10.5833 12.581L13.5 8.49948Z"
        fill="currentColor" />
</svg>
    