<svg width="24" height="24" viewBox="0 0 24 24" fill="none" xmlns="http://www.w3.org/2000/svg">
    <path fill-rule="evenodd" clip-rule="evenodd"
        d="M6 3C6 2.44772 6.44772 2 7 2H9H15H17C17.5523 2 18 2.44772 18 3C18 3.55228 17.5523 4 17 4V8.03163C17 8.92196 16.6045 9.76631 15.9206 10.3363L13.9241 12L15.9206 13.6637C16.6045 14.2337 17 15.078 17 15.9684V20C17.5523 20 18 20.4477 18 21C18 21.5523 17.5523 22 17 22H15H9H7C6.44772 22 6 21.5523 6 21C6 20.4477 6.44772 20 7 20V15.9684C7 15.078 7.39547 14.2337 8.07945 13.6637L10.0759 12L8.07945 10.3363C7.39547 9.76631 7 8.92196 7 8.03163V4C6.44772 4 6 3.55228 6 3ZM9 20H11H13H15V18V15.9684C15 15.6716 14.8682 15.3901 14.6402 15.2002L12.6402 13.5335C12.2693 13.2244 11.7307 13.2244 11.3598 13.5335L9.35982 15.2002C9.13182 15.3901 9 15.6716 9 15.9684V18V20ZM13 4H15V6V8.03163C15 8.3284 14.8682 8.60985 14.6402 8.79985L12.6402 10.4665C12.2693 10.7756 11.7307 10.7756 11.3598 10.4665L9.35982 8.79985C9.13182 8.60985 9 8.3284 9 8.03163V6V4H11H13Z"
        fill="currentColor" />
</svg>
    