<svg width="24" height="25" viewBox="0 0 24 25" fill="none" xmlns="http://www.w3.org/2000/svg">
    <path fill-rule="evenodd" clip-rule="evenodd"
        d="M15.1956 6.89304C15.5826 6.49901 16.2158 6.49331 16.6098 6.8803L21.7007 11.8803C21.8922 12.0683 22 12.3254 22 12.5937C22 12.8621 21.8922 13.1192 21.7007 13.3072L16.6098 18.3072C16.2158 18.6942 15.5826 18.6885 15.1956 18.2945C14.8087 17.9004 14.8144 17.2673 15.2084 16.8803L18.5547 13.5937L3 13.5938C2.44772 13.5938 2 13.146 2 12.5938C2 12.0415 2.44772 11.5938 3 11.5938L18.5547 11.5937L15.2084 8.3072C14.8144 7.92021 14.8087 7.28707 15.1956 6.89304Z"
        fill="currentColor" />
</svg>
    