<svg width="24" height="24" viewBox="0 0 24 24" fill="none" xmlns="http://www.w3.org/2000/svg">
    <path fill-rule="evenodd" clip-rule="evenodd"
        d="M19.4071 5.64289C18.1109 4.34664 15.8162 3 13 3C10.1916 3 7.94562 4.29016 6.64289 5.59289C5.555 6.68078 4.43162 8.47193 4.09858 10.6844L3.70711 10.2929C3.31658 9.90237 2.68342 9.90237 2.29289 10.2929C1.90237 10.6834 1.90237 11.3166 2.29289 11.7071L4.29289 13.7071C4.6532 14.0674 5.2268 14.0992 5.6247 13.7809L8.12469 11.7809C8.55596 11.4359 8.62588 10.8066 8.28087 10.3753C7.93586 9.94404 7.30657 9.87412 6.87531 10.2191L6.09968 10.8396C6.38561 9.18017 7.24044 7.82377 8.05711 7.00711C9.05057 6.01364 10.8084 5 13 5C15.1838 5 16.9929 6.05716 17.9929 7.05711C18.9864 8.05057 20 9.80838 20 12C20 14.1838 18.9428 15.9929 17.9429 16.9929C16.9494 17.9864 15.1916 19 13 19C12.4477 19 12 19.4477 12 20C12 20.5523 12.4477 21 13 21C15.8084 21 18.0544 19.7098 19.3571 18.4071C20.6534 17.1109 22 14.8162 22 12C22 9.19161 20.7098 6.94562 19.4071 5.64289ZM13 8.5C13 7.94772 12.5523 7.5 12 7.5C11.4477 7.5 11 7.94772 11 8.5V12.875C11 13.1634 11.1245 13.4377 11.3415 13.6276L14.3415 16.2526C14.7571 16.6163 15.3889 16.5741 15.7526 16.1585C16.1163 15.7429 16.0741 15.1111 15.6585 14.7474L13 12.4212V8.5Z"
        fill="currentColor" />
</svg>
    