<svg width="24" height="24" viewBox="0 0 24 24" fill="none" xmlns="http://www.w3.org/2000/svg">
    <path fill-rule="evenodd" clip-rule="evenodd"
        d="M10.4667 2.2839C11.427 1.69703 12.635 1.69703 13.5954 2.2839L20.5954 6.56168C21.4871 7.10665 22.031 8.07643 22.031 9.12153V18.9999C22.031 20.6567 20.6879 21.9999 19.031 21.9999H5.03101C3.37415 21.9999 2.03101 20.6567 2.03101 18.9999V9.12153C2.03101 8.07643 2.57489 7.10665 3.46665 6.56168L10.4667 2.2839ZM12.5525 3.99047C12.2323 3.79484 11.8297 3.79484 11.5096 3.99047L5.03789 7.94537L11.3953 13.1809C11.7646 13.485 12.2975 13.485 12.6667 13.1809L19.0241 7.94537L12.5525 3.99047ZM20.031 9.70708L16.2589 12.8135L20.031 16.5856V9.70708ZM14.7078 14.0909L13.9381 14.7247C12.8304 15.637 11.2317 15.637 10.1239 14.7247L9.3542 14.0909L4.09431 19.3508C4.23643 19.73 4.6022 19.9999 5.03101 19.9999H19.031C19.4598 19.9999 19.8256 19.73 19.9677 19.3508L14.7078 14.0909ZM7.80312 12.8135L4.03101 9.70708V16.5856L7.80312 12.8135Z"
        fill="currentColor" />
</svg>
    