<svg width="40" height="40" viewBox="0 0 40 40" fill="none" xmlns="http://www.w3.org/2000/svg">
    <mask id="path-1-inside-1_185_117" fill="white">
        <path
            d="M19.7344 31.6036C22.2018 32.254 24.8122 32.101 27.1867 31.1668C29.5612 30.2326 31.576 28.5658 32.9387 26.4085C34.3014 24.2512 34.9409 21.7156 34.7645 19.1701C34.588 16.6246 33.6047 14.2015 31.9574 12.2529C30.3101 10.3042 28.0845 8.93142 25.6038 8.33378C23.1231 7.73615 20.5165 7.94481 18.1625 8.92947C15.8085 9.91413 13.8296 11.6235 12.5133 13.8094C11.1969 15.9953 10.6116 18.5439 10.8424 21.0851L22.7932 20L19.7344 31.6036Z" />
    </mask>
    <path
        d="M19.7344 31.6036C22.2018 32.254 24.8122 32.101 27.1867 31.1668C29.5612 30.2326 31.576 28.5658 32.9387 26.4085C34.3014 24.2512 34.9409 21.7156 34.7645 19.1701C34.588 16.6246 33.6047 14.2015 31.9574 12.2529C30.3101 10.3042 28.0845 8.93142 25.6038 8.33378C23.1231 7.73615 20.5165 7.94481 18.1625 8.92947C15.8085 9.91413 13.8296 11.6235 12.5133 13.8094C11.1969 15.9953 10.6116 18.5439 10.8424 21.0851L22.7932 20L19.7344 31.6036Z"
        stroke="#D3F7A6" stroke-width="4" mask="url(#path-1-inside-1_185_117)" />
    <path d="M22.7962 20L8.16153 24.6048L5 21.6254L22.7962 20Z" fill="white" />
    <path d="M8.16153 24.6048L22.7962 20L9.19241 26.2543L8.09275 28.866L8.16153 24.6048Z"
        fill="white" />
    <path d="M8.16153 24.6048L22.7962 20L9.19241 26.2543L8.09275 28.866L8.16153 24.6048Z"
        fill="black" fill-opacity="0.2" />
    <path d="M9.19241 26.2543L10.6357 27.9725L8.09275 28.866L9.19241 26.2543Z" fill="white" />
    <path d="M9.19241 26.2543L10.6357 27.9725L8.09275 28.866L9.19241 26.2543Z" fill="black"
        fill-opacity="0.2" />
    <path d="M9.19241 26.2543L10.6357 27.9725L8.09275 28.866L9.19241 26.2543Z" fill="black"
        fill-opacity="0.2" />
    <path d="M22.7962 20L13.5911 31.4777L9.19241 26.2543L22.7962 20Z" fill="white" />
</svg>
    