<svg width="30" height="24" viewBox="0 0 24 24" fill="none" xmlns="http://www.w3.org/2000/svg">
    <mask id="path-1-inside-1_105_3556" fill="white">
        <path
            d="M14.8378 23.6036C17.3051 24.254 19.9156 24.101 22.2901 23.1668C24.6646 22.2326 26.6794 20.5658 28.0421 18.4085C29.4048 16.2512 30.0443 13.7156 29.8679 11.1701C29.6914 8.62456 28.7081 6.20153 27.0608 4.25289C25.4135 2.30424 23.1879 0.931419 20.7072 0.333783C18.2265 -0.263852 15.6199 -0.05519 13.2659 0.92947C10.9119 1.91413 8.93304 3.62352 7.61669 5.80942C6.30034 7.99531 5.71503 10.5439 5.94577 13.0851L17.8966 12L14.8378 23.6036Z" />
    </mask>
    <path
        d="M14.8378 23.6036C17.3051 24.254 19.9156 24.101 22.2901 23.1668C24.6646 22.2326 26.6794 20.5658 28.0421 18.4085C29.4048 16.2512 30.0443 13.7156 29.8679 11.1701C29.6914 8.62456 28.7081 6.20153 27.0608 4.25289C25.4135 2.30424 23.1879 0.931419 20.7072 0.333783C18.2265 -0.263852 15.6199 -0.05519 13.2659 0.92947C10.9119 1.91413 8.93304 3.62352 7.61669 5.80942C6.30034 7.99531 5.71503 10.5439 5.94577 13.0851L17.8966 12L14.8378 23.6036Z"
        stroke="#D3F7A6" stroke-width="4" mask="url(#path-1-inside-1_105_3556)" />
    <path d="M17.8996 12L3.26492 16.6048L0.103394 13.6254L17.8996 12Z" fill="white" />
    <path d="M3.26492 16.6048L17.8996 12L4.29581 18.2543L3.19615 20.866L3.26492 16.6048Z"
        fill="white" />
    <path d="M3.26492 16.6048L17.8996 12L4.29581 18.2543L3.19615 20.866L3.26492 16.6048Z"
        fill="black" fill-opacity="0.2" />
    <path d="M4.29581 18.2543L5.73912 19.9725L3.19615 20.866L4.29581 18.2543Z" fill="white" />
    <path d="M4.29581 18.2543L5.73912 19.9725L3.19615 20.866L4.29581 18.2543Z" fill="black"
        fill-opacity="0.2" />
    <path d="M4.29581 18.2543L5.73912 19.9725L3.19615 20.866L4.29581 18.2543Z" fill="black"
        fill-opacity="0.2" />
    <path d="M17.8996 12L8.69446 23.4777L4.29581 18.2543L17.8996 12Z" fill="white" />
</svg>
    