<svg width="24" height="24" viewBox="0 0 24 24" fill="none" xmlns="http://www.w3.org/2000/svg">
    <path fill-rule="evenodd" clip-rule="evenodd"
        d="M4.5 2.5C3.39543 2.5 2.5 3.39543 2.5 4.5V6.5V9.5C2.5 10.6046 3.39543 11.5 4.5 11.5H9.5C10.6046 11.5 11.5 10.6046 11.5 9.5V4.5C11.5 3.39543 10.6046 2.5 9.5 2.5H4.5ZM4.5 4.5H9.5V9.5H4.5V6.5V4.5Z"
        fill="currentColor" />
    <path fill-rule="evenodd" clip-rule="evenodd"
        d="M15.5 2.5C14.3954 2.5 13.5 3.39543 13.5 4.5V6.5V9.5C13.5 10.6046 14.3954 11.5 15.5 11.5H20.5C21.6046 11.5 22.5 10.6046 22.5 9.5V4.5C22.5 3.39543 21.6046 2.5 20.5 2.5H15.5ZM15.5 4.5H20.5V9.5H15.5V6.5V4.5Z"
        fill="currentColor" />
    <path fill-rule="evenodd" clip-rule="evenodd"
        d="M15.5 13.5C14.3954 13.5 13.5 14.3954 13.5 15.5V17.5V20.5C13.5 21.6046 14.3954 22.5 15.5 22.5H20.5C21.6046 22.5 22.5 21.6046 22.5 20.5V15.5C22.5 14.3954 21.6046 13.5 20.5 13.5H15.5ZM15.5 15.5H20.5V20.5H15.5V17.5V15.5Z"
        fill="currentColor" />
    <path fill-rule="evenodd" clip-rule="evenodd"
        d="M4.5 13.5C3.39543 13.5 2.5 14.3954 2.5 15.5V17.5V20.5C2.5 21.6046 3.39543 22.5 4.5 22.5H9.5C10.6046 22.5 11.5 21.6046 11.5 20.5V15.5C11.5 14.3954 10.6046 13.5 9.5 13.5H4.5ZM4.5 15.5H9.5V20.5H4.5V17.5V15.5Z"
        fill="currentColor" />
</svg>
    