<svg width="24" height="24" viewBox="0 0 24 24" fill="none" xmlns="http://www.w3.org/2000/svg">
    <path fill-rule="evenodd" clip-rule="evenodd"
        d="M2.03101 4C2.03101 2.89543 2.92644 2 4.03101 2H20.031C21.1356 2 22.031 2.89543 22.031 4V15.3593C22.031 15.362 22.031 15.3647 22.031 15.3673V20C22.031 21.1046 21.1356 22 20.031 22H4.03101C2.92644 22 2.03101 21.1046 2.03101 20V17.0014C2.03101 17.0005 2.03101 16.9997 2.03101 16.9988V4ZM4.03101 17.4233V18V20H6.03101H18.031H20.031V18V15.7481L17.0455 12.4395L11.6022 17.7179C11.2531 18.0564 10.7111 18.0947 10.3178 17.8087L6.4982 15.0308L4.03101 17.4233ZM20.031 12.7627L17.8359 10.3301C17.6541 10.1285 17.3981 10.0096 17.1268 10.0006C16.8555 9.99151 16.5922 10.0931 16.3974 10.2821L10.8138 15.6965L6.99418 12.9185C6.60093 12.6325 6.05894 12.6709 5.70986 13.0094L4.03101 14.6374V6V4H6.03101H18.031H20.031V6V12.7627ZM9.03101 8.5C9.03101 7.67157 9.70258 7 10.531 7C11.3594 7 12.031 7.67157 12.031 8.5C12.031 9.32843 11.3594 10 10.531 10C9.70258 10 9.03101 9.32843 9.03101 8.5Z"
        fill="currentColor" />
</svg>
    