<svg width="25" height="24" viewBox="0 0 25 24" fill="none" xmlns="http://www.w3.org/2000/svg">
    <path fill-rule="evenodd" clip-rule="evenodd"
        d="M22.531 6V18C22.531 19.6569 21.1879 21 19.531 21H5.531C3.87415 21 2.53101 19.6568 2.53101 18L2.53101 12L2.53101 8.5L2.53101 6.00001C2.53101 4.34315 3.87415 3.00001 5.531 3.00001L8.53101 3L12.531 3L19.531 3C21.1879 3 22.531 4.34315 22.531 6ZM20.531 6C20.531 5.44772 20.0833 5 19.531 5L12.531 5H8.53101L5.531 5.00001C4.97872 5.00001 4.53101 5.44772 4.53101 6.00001V8.5V12L4.53101 18C4.53101 18.5523 4.97872 19 5.531 19H19.531C20.0833 19 20.531 18.5523 20.531 18V6ZM5.53101 7.24999C5.53101 6.55964 6.09065 5.99999 6.78101 5.99999C7.47136 5.99999 8.03101 6.55964 8.03101 7.24999C8.03101 7.94035 7.47136 8.49999 6.78101 8.49999C6.09065 8.49999 5.53101 7.94035 5.53101 7.24999ZM10.781 5.99999C10.0907 5.99999 9.53101 6.55964 9.53101 7.24999C9.53101 7.94035 10.0907 8.49999 10.781 8.49999C11.4714 8.49999 12.031 7.94035 12.031 7.24999C12.031 6.55964 11.4714 5.99999 10.781 5.99999Z"
        fill="currentColor" />
</svg>
    