<svg width="25" height="24" viewBox="0 0 25 24" fill="none" xmlns="http://www.w3.org/2000/svg">
    <path fill-rule="evenodd" clip-rule="evenodd"
        d="M22.25 12C22.25 6.47715 17.7728 2 12.25 2C6.72715 2 2.25 6.47715 2.25 12C2.25 17.5228 6.72715 22 12.25 22C17.7728 22 22.25 17.5228 22.25 12ZM20.25 12C20.25 16.4183 16.6683 20 12.25 20C7.83172 20 4.25 16.4183 4.25 12C4.25 7.58172 7.83172 4 12.25 4C16.6683 4 20.25 7.58172 20.25 12ZM12.9571 15.7071L15.9571 12.7071C16.3476 12.3166 16.3476 11.6834 15.9571 11.2929C15.5666 10.9024 14.9334 10.9024 14.5429 11.2929L13.25 12.5858L13.25 9C13.25 8.44772 12.8023 8 12.25 8C11.6977 8 11.25 8.44772 11.25 9L11.25 12.5858L9.95711 11.2929C9.56658 10.9024 8.93342 10.9024 8.54289 11.2929C8.15237 11.6834 8.15237 12.3166 8.54289 12.7071L11.5429 15.7071C11.7304 15.8946 11.9848 16 12.25 16C12.5152 16 12.7696 15.8946 12.9571 15.7071Z"
        fill="currentColor" />
</svg>
    