<svg width="17" height="17" viewBox="0 0 17 17" fill="none" xmlns="http://www.w3.org/2000/svg">
    <path fill-rule="evenodd" clip-rule="evenodd"
        d="M17 6.375C17 9.89582 14.1458 12.75 10.625 12.75C9.15311 12.75 7.79772 12.2512 6.71867 11.4134C6.67803 11.4993 6.62215 11.5799 6.55104 11.651L1.45104 16.751C1.1191 17.083 0.580905 17.083 0.248959 16.751C-0.0829864 16.4191 -0.0829864 15.8809 0.248959 15.549L5.34896 10.449C5.42007 10.3778 5.50065 10.322 5.58664 10.2813C4.74882 9.20228 4.25 7.84689 4.25 6.375C4.25 2.85418 7.10418 0 10.625 0C14.1458 0 17 2.85418 17 6.375ZM15.3 6.375C15.3 3.79307 13.2069 1.7 10.625 1.7C8.04307 1.7 5.95 3.79307 5.95 6.375C5.95 8.95693 8.04307 11.05 10.625 11.05C13.2069 11.05 15.3 8.95693 15.3 6.375Z"
        fill="currentColor" />
</svg>
    