<svg width="24" height="24" viewBox="0 0 24 24" fill="none" xmlns="http://www.w3.org/2000/svg">
    <path fill-rule="evenodd" clip-rule="evenodd"
        d="M12.0001 4.30933L18.6604 8.15463V15.8452L12.0001 19.6905L5.33984 15.8452V8.15463L12.0001 4.30933ZM11.0001 2.57728C11.6189 2.22001 12.3813 2.22001 13.0001 2.57728L19.6604 6.42257C20.2792 6.77984 20.6604 7.44009 20.6604 8.15463V15.8452C20.6604 16.5598 20.2792 17.22 19.6604 17.5773L13.0001 21.4226C12.3813 21.7798 11.6189 21.7798 11.0001 21.4226L4.33984 17.5773C3.72104 17.22 3.33984 16.5598 3.33984 15.8452V8.15463C3.33984 7.44009 3.72104 6.77984 4.33984 6.42257L11.0001 2.57728ZM8 11.9999C8 9.79078 9.79086 7.99992 12 7.99992C14.2091 7.99992 16 9.79078 16 11.9999C16 14.2091 14.2091 15.9999 12 15.9999C9.79086 15.9999 8 14.2091 8 11.9999ZM12 9.99992C10.8954 9.99992 10 10.8954 10 11.9999C10 13.1045 10.8954 13.9999 12 13.9999C13.1046 13.9999 14 13.1045 14 11.9999C14 10.8954 13.1046 9.99992 12 9.99992Z"
        fill="currentColor" />
</svg>
    