<svg width="15" height="15" viewBox="0 0 15 15" fill="none" xmlns="http://www.w3.org/2000/svg">
    <path fill-rule="evenodd" clip-rule="evenodd"
        d="M7.32188 3.99487C7.5632 4.24168 7.55875 4.63738 7.31195 4.8787C7.06514 5.12002 6.66944 5.11557 6.42812 4.86877L5 3.40819L5 13.125C5 13.4702 4.72018 13.75 4.375 13.75C4.02982 13.75 3.75 13.4702 3.75 13.125L3.75 3.40819L2.32188 4.86877C2.08056 5.11557 1.68486 5.12002 1.43805 4.8787C1.19125 4.63738 1.1868 4.24168 1.42812 3.99487L3.92812 1.43805C4.04571 1.31779 4.20681 1.25 4.375 1.25C4.5432 1.25 4.70429 1.31779 4.82188 1.43805L7.32188 3.99487ZM13.5719 11.0051C13.8132 10.7583 13.8088 10.3626 13.5619 10.1213C13.3151 9.87998 12.9194 9.88443 12.6781 10.1312L11.25 11.5918L11.25 1.875C11.25 1.52982 10.9702 1.25 10.625 1.25C10.2798 1.25 10 1.52982 10 1.875L10 11.5918L8.57188 10.1312C8.33056 9.88443 7.93486 9.87998 7.68805 10.1213C7.44125 10.3626 7.4368 10.7583 7.67812 11.0051L10.1781 13.5619C10.2957 13.6822 10.4568 13.75 10.625 13.75C10.7932 13.75 10.9543 13.6822 11.0719 13.5619L13.5719 11.0051Z"
        fill="currentColor" />
</svg>
    