<svg width="99" height="23" viewBox="0 0 99 23" fill="none" xmlns="http://www.w3.org/2000/svg">
    <path fill-rule="evenodd" clip-rule="evenodd"
        d="M74.7073 16.1457H77.464V3.34375H74.7073V16.1457ZM52.8785 7.79754H54.989V10.1428H52.9V11.7349C52.9 13.571 53.4815 14.3025 54.6444 13.9296V16.3824C54.2855 16.4541 53.9912 16.49 53.7615 16.49C52.6272 16.49 51.7371 16.1672 51.091 15.5217C50.4449 14.8619 50.1219 13.8937 50.1219 12.6171V10.1428H48.6789V7.79754C49.4973 7.79754 50.0429 7.66127 50.3157 7.38874C50.5885 7.10186 50.8038 6.49941 50.9618 5.5814H52.8785V7.79754ZM37.4571 8.50756C36.6244 7.77602 35.5189 7.41025 34.1406 7.41025C32.1305 7.41025 30.8168 8.22786 30.1995 9.86306L32.5254 10.4655L32.6546 10.2288C32.7551 10.0567 32.9561 9.89892 33.2576 9.75548C33.5734 9.61205 33.9252 9.54033 34.3128 9.54033C34.8871 9.54033 35.3322 9.69811 35.6481 10.0137C35.964 10.3149 36.1362 10.7022 36.165 11.1755H32.9561C32.1233 11.1755 31.4055 11.4122 30.8025 11.8856C30.1995 12.3589 29.8979 13.0116 29.8979 13.8435C29.8979 14.5033 30.1133 15.1058 30.544 15.6508C30.9604 16.1672 31.6137 16.4398 32.5038 16.4684C34.0544 16.4684 35.2676 16.0094 36.1434 15.0914H36.165V16.1672H38.7278V11.6059C38.7278 10.2719 38.3042 9.2391 37.4571 8.50756ZM35.3466 14.0587C34.8154 14.3886 34.2123 14.5679 33.5375 14.5966C33.1355 14.5822 32.8556 14.4962 32.6976 14.3384C32.5397 14.1662 32.4823 13.9367 32.5254 13.6499C32.5828 13.2769 32.7766 13.0259 33.1068 12.8968C33.4514 12.7534 33.997 12.6816 34.7436 12.6816H36.165C36.165 13.2267 35.8922 13.6857 35.3466 14.0587ZM43.3001 16.5545C44.1903 16.6119 45.1522 16.4756 46.186 16.1457C46.8608 15.8732 47.3633 15.4285 47.6935 14.8117C48.0237 14.1949 48.1099 13.5423 47.9519 12.8538C47.794 12.2513 47.5212 11.8138 47.1336 11.5413C46.7603 11.2688 46.2219 11.0895 45.5184 11.0034L43.9893 10.9173C42.9843 10.8456 42.4315 10.7739 42.331 10.7022C42.1013 10.6018 41.9721 10.4655 41.9434 10.2934C41.9146 10.1213 42.0008 9.94196 42.2018 9.75548C42.6325 9.42557 43.2786 9.31082 44.14 9.41123C45.0446 9.52598 45.583 9.8272 45.7552 10.3149L47.8227 9.75548C47.6791 9.11001 47.313 8.58645 46.7244 8.18482C46.1501 7.76885 45.425 7.525 44.5492 7.45328C43.3288 7.33853 42.2808 7.46763 41.405 7.84057C40.5435 8.21351 39.9979 8.76575 39.7682 9.49729C39.5529 10.2001 39.5672 10.8241 39.8113 11.3692C40.0697 11.8999 40.522 12.28 41.1681 12.5095C41.5414 12.6243 42.2808 12.7319 43.3863 12.8323C44.5779 12.947 45.2456 13.0187 45.3891 13.0474C45.5901 13.1048 45.7265 13.2195 45.7983 13.3917C45.8701 13.5495 45.8629 13.7001 45.7768 13.8435C45.5758 14.1734 45.0948 14.3671 44.3339 14.4244C43.5586 14.4818 42.9699 14.4173 42.5679 14.2308C42.0798 14.0873 41.7782 13.8363 41.6634 13.4777L39.4882 14.0587C39.6749 14.7472 40.12 15.3209 40.8235 15.7799C41.5414 16.2389 42.3669 16.4971 43.3001 16.5545ZM59.6925 9.02394V7.79754H56.9358V16.1672H59.6925V12.4235C59.6925 10.9317 60.3386 10.1284 61.6307 10.0137C61.8892 9.99933 62.1332 10.0065 62.3629 10.0352C62.607 10.0639 62.7793 10.0997 62.8798 10.1428C62.9947 10.1858 63.0593 10.2145 63.0736 10.2288L63.8705 7.66844C63.1382 7.35288 62.3701 7.32419 61.5661 7.58238C60.7621 7.84057 60.1375 8.32109 59.6925 9.02394ZM68.1693 7.41025C69.5476 7.41025 70.6531 7.77602 71.4858 8.50756C72.3329 9.2391 72.7565 10.2719 72.7565 11.6059V16.1672H70.1937V15.0914H70.1721C69.2963 16.0094 68.0831 16.4684 66.5325 16.4684C65.6424 16.4398 64.9891 16.1672 64.5728 15.6508C64.142 15.1058 63.9267 14.5033 63.9267 13.8435C63.9267 13.0116 64.2282 12.3589 64.8312 11.8856C65.4342 11.4122 66.1521 11.1755 66.9848 11.1755H70.1937C70.165 10.7022 69.9927 10.3149 69.6768 10.0137C69.3609 9.69811 68.9159 9.54033 68.3416 9.54033C67.9539 9.54033 67.6022 9.61205 67.2863 9.75548C66.9848 9.89892 66.7838 10.0567 66.6833 10.2288L66.5541 10.4655L64.2282 9.86306C64.8455 8.22786 66.1592 7.41025 68.1693 7.41025ZM67.5663 14.5966C68.2411 14.5679 68.8441 14.3886 69.3753 14.0587C69.9209 13.6857 70.1937 13.2267 70.1937 12.6816H68.7723C68.0257 12.6816 67.4801 12.7534 67.1356 12.8968C66.8053 13.0259 66.6115 13.2769 66.5541 13.6499C66.511 13.9367 66.5684 14.1662 66.7264 14.3384C66.8843 14.4962 67.1643 14.5822 67.5663 14.5966ZM86.0735 11.5413V7.79754H88.8301V15.3281C88.8301 16.8916 88.3994 18.2184 87.538 19.3085C86.6765 20.3987 85.5279 20.9437 84.0922 20.9437C82.6421 20.9151 81.2997 20.1907 80.0649 18.7706L81.4433 17.1139C82.276 17.9889 83.1661 18.3905 84.1137 18.3188C85.5064 18.2327 86.1597 17.035 86.0735 14.7257C85.3413 15.7871 84.3291 16.3178 83.0369 16.3178C82.0319 16.3178 81.1705 15.9592 80.4526 15.242C79.7491 14.5392 79.3973 13.6283 79.3973 12.5095V7.79754H82.1324V11.5413C82.1324 12.1294 82.3191 12.6314 82.6923 13.0474C83.08 13.4634 83.5466 13.6714 84.0922 13.6714C84.6378 13.6714 85.1044 13.4634 85.492 13.0474C85.8797 12.6314 86.0735 12.1294 86.0735 11.5413ZM98.8024 7.79754H95.8304L94.1721 10.0352L92.6 7.79754H89.628L92.4923 11.8856L89.3049 16.1672H92.2985L93.9567 13.9511L95.5073 16.1672H98.4793L95.615 12.0792L98.8024 7.79754Z"
        fill="var(--accent)" />
    <path fill-rule="evenodd" clip-rule="evenodd"
        d="M4.67527 8.99191L4.67527 8.99192L3.14376 11.9989C0.727319 16.7434 -0.480902 19.1157 0.589623 20.8547C1.66015 22.5937 4.32869 22.5938 9.66577 22.5938H12.7288C18.0658 22.5938 20.7344 22.5937 21.8049 20.8547C22.8754 19.1157 21.6672 16.7434 19.2508 11.9989L17.7193 8.99193C14.8677 3.39314 13.4419 0.59375 11.1973 0.59375C8.95258 0.59375 7.52681 3.39314 4.67527 8.99191ZM7.6832 9.49067L7.68319 9.49068L6.02381 11.2654C3.40561 14.0657 2.09651 15.4658 2.49293 16.8799C2.88936 18.294 4.73922 18.8228 8.43896 19.8805L10.5623 20.4876C14.262 21.5453 16.1119 22.0742 17.1996 21.0844C18.2874 20.0946 17.9214 18.2156 17.1894 14.4576L16.7255 12.0758C15.8616 7.64109 15.4297 5.42374 13.8737 4.97888C12.3176 4.53402 10.7728 6.18625 7.6832 9.49067ZM9.95088 11.2168L9.95087 11.2168L8.78657 11.9146C6.94951 13.0155 6.03098 13.566 6.02546 14.3856C6.01995 15.2052 6.93096 15.7728 8.75298 16.9079L9.79865 17.5593C11.6207 18.6945 12.5317 19.262 13.2681 18.8978C14.0046 18.5336 14.0981 17.4692 14.2853 15.3403L14.4039 13.9911C14.6248 11.479 14.7352 10.2229 13.9689 9.74547C13.2026 9.26806 12.1187 9.91764 9.95088 11.2168ZM10.9809 12.3154L10.9809 12.3154L10.1513 12.5372C8.84245 12.8871 8.188 13.062 8.04139 13.5592C7.89479 14.0563 8.34924 14.5596 9.25814 15.566L9.25815 15.566L9.77979 16.1436C10.6887 17.15 11.1432 17.6533 11.6544 17.5598C12.1656 17.4664 12.4085 16.8358 12.8944 15.5746L13.2023 14.7752C13.7756 13.2868 14.0623 12.5426 13.68 12.1194C13.2977 11.6961 12.5255 11.9025 10.9809 12.3154Z"
        fill="var(--accent)" />
</svg>
    