<?xml version="1.0" encoding="utf-8"?>
<!-- Uploaded to: SVG Repo, www.svgrepo.com, Generator: SVG Repo Mixer Tools -->
<svg width="800px" height="800px" viewBox="0 0 1024 1024" class="icon"  version="1.1" xmlns="http://www.w3.org/2000/svg"><path d="M910.5 829.36666667H175.2c-27.4 0-49.6-22.3-49.6-49.6V284.26666667c0-27.4 22.3-49.6 49.6-49.6h735.3c27.4 0 49.6 22.3 49.6 49.6v495.5c0 27.4-22.2 49.6-49.6 49.6z" fill="#A7B8C6" /><path d="M870.7 178.96666667H118.6c-15.3 0-27.7 12.4-27.7 27.7v512.3c0 15.3 12.4 27.7 27.7 27.7h752.1c15.3 0 27.7-12.4 27.7-27.7V206.66666667c0-15.2-12.4-27.7-27.7-27.7z" fill="#D7D4CA" /><path d="M870.7 151.96666667H118.6c-30.2 0-54.7 24.6-54.7 54.7v512.3c0 30.2 24.6 54.7 54.7 54.7h752.1c30.2 0 54.7-24.6 54.7-54.7V206.66666667c0.1-30.2-24.5-54.7-54.7-54.7z m27.7 567c0 15.3-12.4 27.7-27.7 27.7H118.6c-15.3 0-27.7-12.4-27.7-27.7V206.66666667c0-15.3 12.4-27.7 27.7-27.7h752.1c15.3 0 27.7 12.4 27.7 27.7v512.3z" fill="#1A1A1A" /><path d="M834 524.46666667H157.3c-14.5 0-26.3-11.8-26.3-26.3V234.96666667c0-14.5 11.8-26.3 26.3-26.3H834c14.5 0 26.3 11.8 26.3 26.3v263.2c0 14.5-11.8 26.3-26.3 26.3z" fill="#3D90BC" /><path d="M90.3 452.26666667H898v210.5H90.3z" fill="#B7B4AB" /><path d="M834 587.66666667H157.3c-14.5 0-26.3-11.8-26.3-26.3V298.16666667c0-14.5 11.8-26.3 26.3-26.3H834c14.5 0 26.3 11.8 26.3 26.3v263.2c0 14.5-11.8 26.3-26.3 26.3z" fill="#2A80AC" /><path d="M834 593.66666667H157.3c-14.5 0-26.3-11.8-26.3-26.3V304.16666667c0-14.5 11.8-26.3 26.3-26.3H834c14.5 0 26.3 11.8 26.3 26.3v263.2c0 14.5-11.8 26.3-26.3 26.3z" fill="#F4AA16" /><path d="M834 650.76666667H157.3c-14.5 0-26.3-11.8-26.3-26.3V361.26666667c0-14.5 11.8-26.3 26.3-26.3H834c14.5 0 26.3 11.8 26.3 26.3v263.2c0 14.5-11.8 26.3-26.3 26.3z" fill="#DF9513" /><path d="M834 656.76666667H157.3c-14.5 0-26.3-11.8-26.3-26.3V367.36666667c0-14.5 11.8-26.3 26.3-26.3H834c14.5 0 26.3 11.8 26.3 26.3v263.2c0 14.5-11.8 26.2-26.3 26.2z" fill="#52B240" /><path d="M834 713.96666667H157.3c-14.5 0-26.3-11.8-26.3-26.3V424.46666667c0-14.5 11.8-26.3 26.3-26.3H834c14.5 0 26.3 11.8 26.3 26.3V687.66666667c0 14.5-11.8 26.3-26.3 26.3z" fill="#409F37" /><path d="M834 719.96666667H157.3c-14.5 0-26.3-11.8-26.3-26.3V430.46666667c0-14.5 11.8-26.3 26.3-26.3H834c14.5 0 26.3 11.8 26.3 26.3V693.66666667c0 14.5-11.8 26.3-26.3 26.3z" fill="#E46A5C" /><path d="M860.3 452.26666667H614.5c-18.6 0-33.2 15.3-33.2 33.9 0 1.5 0 3.1-0.1 4.6-2.1 44-37.6 80-81.5 82.7-50.6 3.1-92.6-37-92.6-86.9v-0.4c0.1-18.6-14.5-33.9-33.2-33.9h-243V684.66666667c0 14.5 11.8 26.3 26.3 26.3H834c14.5 0 26.3-11.8 26.3-26.3V452.26666667z" fill="#D95F52" /><path d="M616.8 464.26666667c-11.4 0-20.4 9.4-20.4 20.8v0.2c0 56.5-45.7 102.4-102.2 102.4S392 541.86666667 392 485.36666667v-0.2c0-11.4-9-20.8-20.4-20.8H90.3v250.5c0 17.8 14.5 32.3 32.3 32.3h743.1c17.8 0 32.3-14.5 32.3-32.3V464.26666667H616.8z" fill="#D7D4CA" /></svg>