<svg width="20" height="20" viewBox="0 0 20 20" fill="none" xmlns="http://www.w3.org/2000/svg">
    <path fill-rule="evenodd" clip-rule="evenodd"
        d="M14.7141 5.28592C13.7377 4.30961 12.1548 4.30961 11.1785 5.28592L10 6.46443C9.67457 6.78987 9.14694 6.78987 8.8215 6.46443C8.49606 6.139 8.49606 5.61136 8.8215 5.28592L10 4.10741C11.6272 2.48023 14.2654 2.48023 15.8926 4.10741C17.5198 5.7346 17.5198 8.37278 15.8926 9.99997L14.7141 11.1785C14.3886 11.5039 13.861 11.5039 13.5355 11.1785C13.2101 10.853 13.2101 10.3254 13.5355 9.99997L14.7141 8.82146C15.6904 7.84515 15.6904 6.26223 14.7141 5.28592ZM5.28597 14.714C4.30966 13.7377 4.30966 12.1548 5.28597 11.1785L6.46448 9.99997C6.78991 9.67453 6.78991 9.14689 6.46448 8.82146C6.13904 8.49602 5.6114 8.49602 5.28597 8.82146L4.10745 9.99997C2.48027 11.6272 2.48027 14.2653 4.10745 15.8925C5.73464 17.5197 8.37283 17.5197 10 15.8925L11.1785 14.714C11.504 14.3886 11.504 13.8609 11.1785 13.5355C10.8531 13.2101 10.3254 13.2101 10 13.5355L8.8215 14.714C7.84519 15.6903 6.26228 15.6903 5.28597 14.714ZM12.9463 8.2322C13.2717 7.90676 13.2717 7.37913 12.9463 7.05369C12.6209 6.72825 12.0932 6.72825 11.7678 7.05369L7.05373 11.7677C6.7283 12.0932 6.7283 12.6208 7.05373 12.9462C7.37917 13.2717 7.90681 13.2717 8.23224 12.9462L12.9463 8.2322Z"
        fill="currentColor" />
</svg>
    