<svg width="24" height="24" viewBox="0 0 24 24" fill="none" xmlns="http://www.w3.org/2000/svg">
    <path fill-rule="evenodd" clip-rule="evenodd"
        d="M8.86967 2.45215L6.20203 6.72341L4.40843 9.76302H4.03101C2.92644 9.76302 2.03101 10.6761 2.03101 11.8025V12.8223C2.03101 13.4472 2.31186 14.0366 2.79133 14.4227C2.79737 14.4283 2.80908 14.4392 2.82513 14.4556C2.87285 14.5043 2.95142 14.5927 3.03357 14.7184C3.19273 14.9618 3.36434 15.3396 3.36434 15.8815C3.36434 16.4234 3.19273 16.8012 3.03357 17.0446C2.95142 17.1703 2.87285 17.2587 2.82513 17.3074C2.80908 17.3238 2.79737 17.3348 2.79133 17.3403C2.31186 17.7265 2.03101 18.3159 2.03101 18.9408V19.9605C2.03101 21.0869 2.92644 22 4.03101 22H20.031C21.1356 22 22.031 21.0869 22.031 19.9605V18.9408C22.031 18.3158 21.7501 17.7264 21.2707 17.3403C21.2646 17.3348 21.2529 17.3238 21.2369 17.3074C21.1892 17.2587 21.1106 17.1703 21.0284 17.0446C20.8693 16.8012 20.6977 16.4234 20.6977 15.8815C20.6977 15.3396 20.8693 14.9618 21.0284 14.7184C21.1106 14.5927 21.1892 14.5043 21.2369 14.4556C21.2529 14.4393 21.2646 14.4283 21.2707 14.4227C21.7501 14.0366 22.031 13.4472 22.031 12.8223V11.8025C22.031 10.6761 21.1356 9.76302 20.031 9.76302H18.5106L18.8381 9.26463C19.1456 8.79679 19.0229 8.16335 18.5641 7.84982L16.9027 6.7144C16.6239 6.52386 16.27 6.48868 15.9604 6.62064L15.9609 6.62044L15.9514 6.62429C15.941 6.62853 15.9229 6.63572 15.8981 6.64517C15.8482 6.66413 15.7716 6.69194 15.6741 6.72341C15.4772 6.78697 15.205 6.86214 14.9015 6.91131C14.2465 7.01744 13.6702 6.96701 13.3072 6.71242C12.9299 6.44781 12.6631 5.9068 12.5079 5.25276C12.4357 4.94838 12.3985 4.66502 12.3798 4.45727C12.3705 4.35436 12.366 4.27252 12.3638 4.21898C12.3627 4.19227 12.3622 4.1728 12.362 4.16149L12.3618 4.15207C12.3607 3.81315 12.1946 3.49687 11.9185 3.30816L10.2571 2.17274C9.79831 1.85921 9.17714 1.9843 8.86967 2.45215ZM16.103 9.76302L16.62 8.97633L16.2031 8.69144C15.9454 8.77162 15.603 8.86273 15.2154 8.92554C14.411 9.05587 13.1847 9.10185 12.1738 8.3928C11.1772 7.69378 10.7547 6.53612 10.564 5.73239C10.4724 5.34653 10.4228 4.99306 10.3957 4.72261L9.97437 4.43467L6.63771 9.76302H16.103ZM4.85114 13.842C4.47545 13.1622 4.03101 12.8223 4.03101 12.8223V11.8025H4.78126H5.8674H6.03101H14.031V19.9605H6.03101H5.8674H4.78126H4.03101V18.9408C4.03101 18.9408 4.47545 18.6008 4.85114 17.921C5.12616 17.4233 5.36434 16.7435 5.36434 15.8815C5.36434 15.0195 5.12616 14.3397 4.85114 13.842ZM18.031 19.9605H16.031V11.8025H18.031H18.1946H19.2808H20.031V12.8223C20.031 12.8223 19.5866 13.1622 19.2109 13.842C18.9358 14.3397 18.6977 15.0195 18.6977 15.8815C18.6977 16.7435 18.9358 17.4233 19.2109 17.921C19.5866 18.6008 20.031 18.9408 20.031 18.9408V19.9605H19.2808H18.1946H18.031Z"
        fill="currentColor" />
</svg>
    