<svg width="20" height="20" viewBox="0 0 20 20" fill="none" xmlns="http://www.w3.org/2000/svg">
    <path fill-rule="evenodd" clip-rule="evenodd"
        d="M12 0H4C1.79086 0 0 1.79086 0 4V12C0 14.2091 1.79086 16 4 16C4 18.2091 5.79086 20 8 20H11.5H16C18.2091 20 20 18.2091 20 16V8C20 5.79086 18.2091 4 16 4C16 1.79086 14.2091 0 12 0ZM16 6V12C16 14.2091 14.2091 16 12 16H6C6 17.1046 6.89543 18 8 18H11.5H16C17.1046 18 18 17.1046 18 16V8C18 6.89543 17.1046 6 16 6ZM2 4C2 2.89543 2.89543 2 4 2H12C13.1046 2 14 2.89543 14 4V12C14 13.1046 13.1046 14 12 14H4C2.89543 14 2 13.1046 2 12V4Z"
        fill="currentColor" />
</svg>
    