<svg width="25" height="24" viewBox="0 0 25 24" fill="none" xmlns="http://www.w3.org/2000/svg">
    <path fill-rule="evenodd" clip-rule="evenodd"
        d="M6.53101 22L18.531 22C20.1879 22 21.531 20.6569 21.531 19V12L21.531 8.37939C21.531 7.64611 21.2624 6.93822 20.776 6.38947L19.1279 4.53001L17.8453 3.04161C17.2754 2.38028 16.4457 2 15.5727 2H12.531H6.53101C4.87415 2 3.53101 3.34314 3.53101 5V19C3.53101 20.6569 4.87415 22 6.53101 22ZM16.531 4.58022L17.6219 5.84616L18.6446 7H16.531V4.58022ZM14.531 4V8C14.531 8.55229 14.9787 9 15.531 9H19.531V12L19.531 19C19.531 19.5523 19.0833 20 18.531 20L6.53101 20C5.97872 20 5.53101 19.5523 5.53101 19L5.53101 5C5.53101 4.44772 5.97872 4 6.53101 4L12.531 4L14.531 4ZM8.53101 12C8.53101 11.4477 8.97872 11 9.53101 11H15.531C16.0833 11 16.531 11.4477 16.531 12C16.531 12.5523 16.0833 13 15.531 13H9.53101C8.97872 13 8.53101 12.5523 8.53101 12ZM9.53101 15C8.97872 15 8.53101 15.4477 8.53101 16C8.53101 16.5523 8.97872 17 9.53101 17H15.531C16.0833 17 16.531 16.5523 16.531 16C16.531 15.4477 16.0833 15 15.531 15H9.53101Z"
        fill="currentColor" />
</svg>
    