<svg width="161" height="130" viewBox="0 0 161 130" fill="none" xmlns="http://www.w3.org/2000/svg">
    <path
        id="circle"
        d="M79.6325 127.024C92.8211 130.5 106.775 129.682 119.467 124.689C132.159 119.695 142.929 110.786 150.212 99.2546C157.496 87.7233 160.915 74.1703 159.971 60.5639C159.028 46.9575 153.772 34.0059 144.967 23.59C136.162 13.174 124.265 5.83605 111.006 2.64156C97.746 -0.552924 83.8132 0.56242 71.2305 5.82563C58.6479 11.0888 48.0705 20.2259 41.0343 31.91C33.9981 43.594 30.8695 57.2168 32.1029 70.8L95.9826 64.9999L79.6325 127.024Z"
        fill="currentColor" />
    <path
        id="circle"
        d="M31.9254 61.6935C31.7669 64.7641 31.8294 67.8421 32.1124 70.9037L95.9826 64.9999L31.9254 61.6935Z"
        fill="black" fill-opacity="0.15" />
    <path d="M95.999 65L17.7738 89.6138L0.874756 73.6879L95.999 65Z" fill="white" />
    <path d="M17.7738 89.6138L95.999 65L23.2841 98.4307L17.4062 112.391L17.7738 89.6138Z"
        fill="white" />
    <path d="M17.7738 89.6138L95.999 65L23.2841 98.4307L17.4062 112.391L17.7738 89.6138Z"
        fill="black" fill-opacity="0.2" />
    <path d="M23.2841 98.4307L30.9989 107.615L17.4062 112.391L23.2841 98.4307Z" fill="white" />
    <path d="M23.2841 98.4307L30.9989 107.615L17.4062 112.391L23.2841 98.4307Z" fill="black"
        fill-opacity="0.2" />
    <path d="M23.2841 98.4307L30.9989 107.615L17.4062 112.391L23.2841 98.4307Z" fill="black"
        fill-opacity="0.2" />
    <path d="M95.999 65L46.7958 126.351L23.2841 98.4307L95.999 65Z" fill="white" />
</svg>
    