<svg width="17" height="17" viewBox="0 0 17 17" fill="none" xmlns="http://www.w3.org/2000/svg">
    <path fill-rule="evenodd" clip-rule="evenodd"
        d="M2.125 0C0.951395 0 0 0.951395 0 2.125V4.25C0 4.71944 0.380558 5.1 0.85 5.1C1.31944 5.1 1.7 4.71944 1.7 4.25V2.125C1.7 1.89028 1.89028 1.7 2.125 1.7H4.25C4.71944 1.7 5.1 1.31944 5.1 0.85C5.1 0.380558 4.71944 0 4.25 0H2.125ZM14.875 0C16.0486 0 17 0.951395 17 2.125V4.25C17 4.71944 16.6194 5.1 16.15 5.1C15.6806 5.1 15.3 4.71944 15.3 4.25V2.125C15.3 1.89028 15.1097 1.7 14.875 1.7H12.75C12.2806 1.7 11.9 1.31944 11.9 0.85C11.9 0.380558 12.2806 0 12.75 0H14.875ZM0 14.875C0 16.0486 0.951395 17 2.125 17H4.25C4.71944 17 5.1 16.6194 5.1 16.15C5.1 15.6806 4.71944 15.3 4.25 15.3H2.125C1.89028 15.3 1.7 15.1097 1.7 14.875V12.75C1.7 12.2806 1.31944 11.9 0.85 11.9C0.380558 11.9 0 12.2806 0 12.75V14.875ZM14.875 17C16.0486 17 17 16.0486 17 14.875V12.75C17 12.2806 16.6194 11.9 16.15 11.9C15.6806 11.9 15.3 12.2806 15.3 12.75V14.875C15.3 15.1097 15.1097 15.3 14.875 15.3H12.75C12.2806 15.3 11.9 15.6806 11.9 16.15C11.9 16.6194 12.2806 17 12.75 17H14.875ZM9.69591 5.24919C9.69296 5.32106 9.69 5.39319 9.69 5.46429V6.90628H10.4833C10.8526 6.90628 11.1913 7.12611 11.3623 7.47677C11.5333 7.82744 11.5082 8.25085 11.2973 8.5756L8.88225 12.2943C8.63474 12.6754 8.18493 12.8402 7.77145 12.7012C7.37042 12.5664 7.37088 12.0335 7.37127 11.5779C7.37128 11.5638 7.37129 11.5497 7.37129 11.5357V10.0937H6.51667C6.14694 10.0937 5.80791 9.87334 5.63713 9.522C5.46635 9.17065 5.49218 8.74669 5.70415 8.42212L8.13272 4.70343C8.38089 4.32344 8.83042 4.15981 9.24328 4.2992C9.72817 4.4629 9.7122 4.85217 9.69591 5.24919Z"
        fill="currentColor" />
</svg>
    