<svg width="24" height="24" viewBox="0 0 24 24" fill="none" xmlns="http://www.w3.org/2000/svg">
    <path fill-rule="evenodd" clip-rule="evenodd"
        d="M6.57562 5.30285C8.04996 4.75981 10.3738 4.02521 12 4.02521C13.6262 4.02521 15.95 4.75981 17.4244 5.30285C17.7606 5.42669 18 5.76364 18 6.17632V16.3583C18 16.7377 17.7905 17.0853 17.4573 17.2588L12.4573 19.8627C12.1703 20.0122 11.8297 20.0122 11.5427 19.8627L6.54265 17.2588C6.20945 17.0853 6 16.7377 6 16.3583V6.17632C6 5.76364 6.23941 5.42669 6.57562 5.30285ZM12 2C9.97897 2 7.34963 2.86273 5.89196 3.39964C4.71919 3.8316 4 4.96304 4 6.17632V16.3583C4 17.4966 4.62836 18.5393 5.62796 19.0598L10.628 21.6637C11.4891 22.1121 12.511 22.1121 13.372 21.6637L18.372 19.0598C19.3716 18.5393 20 17.4966 20 16.3583V6.17632C20 4.96304 19.2808 3.8316 18.108 3.39964C16.6504 2.86273 14.021 2 12 2ZM11.9999 5.79727C11.3178 5.79727 10.7726 6.37185 10.7998 7.06202L11.0249 12.7597C11.0458 13.2896 11.4762 13.7083 11.9999 13.7083C12.5236 13.7083 12.9539 13.2896 12.9748 12.7597L13.1999 7.06202C13.2272 6.37185 12.682 5.79727 11.9999 5.79727ZM10.5625 16.7144C10.5625 15.928 11.1921 15.2905 11.9688 15.2905C12.7454 15.2905 13.375 15.928 13.375 16.7144C13.375 17.5009 12.7454 18.1384 11.9688 18.1384C11.1921 18.1384 10.5625 17.5009 10.5625 16.7144Z"
        fill="currentColor" />
</svg>
    