<svg width="25" height="24" viewBox="0 0 25 24" fill="none" xmlns="http://www.w3.org/2000/svg">
    <path fill-rule="evenodd" clip-rule="evenodd"
        d="M22.75 12C22.75 17.5228 18.2728 22 12.75 22C7.22715 22 2.75 17.5228 2.75 12C2.75 6.47715 7.22715 2 12.75 2C18.2728 2 22.75 6.47715 22.75 12ZM20.75 12C20.75 7.58172 17.1683 4 12.75 4C8.33172 4 4.75 7.58172 4.75 12C4.75 16.4183 8.33172 20 12.75 20C17.1683 20 20.75 16.4183 20.75 12ZM13.4571 8.29289L16.4571 11.2929C16.8476 11.6834 16.8476 12.3166 16.4571 12.7071C16.0666 13.0976 15.4334 13.0976 15.0429 12.7071L13.75 11.4142L13.75 15C13.75 15.5523 13.3023 16 12.75 16C12.1977 16 11.75 15.5523 11.75 15L11.75 11.4142L10.4571 12.7071C10.0666 13.0976 9.43342 13.0976 9.04289 12.7071C8.65237 12.3166 8.65237 11.6834 9.04289 11.2929L12.0429 8.29289C12.2304 8.10536 12.4848 8 12.75 8C13.0152 8 13.2696 8.10536 13.4571 8.29289Z"
        fill="currentColor" />
</svg>
    