<svg width="24" height="24" viewBox="0 0 24 24" fill="none" xmlns="http://www.w3.org/2000/svg">
    <path fill-rule="evenodd" clip-rule="evenodd"
        d="M6.4228 12.285C6.81769 11.8989 7.45081 11.906 7.83692 12.3009C8.22304 12.6958 8.21592 13.3289 7.82104 13.715L5.48411 16L21.031 16C21.5833 16 22.031 16.4477 22.031 17C22.031 17.5523 21.5833 18 21.031 18L5.48411 18L7.82104 20.285C8.21592 20.6711 8.22304 21.3042 7.83692 21.6991C7.45081 22.094 6.81769 22.1011 6.4228 21.715L2.33189 17.715C2.13947 17.5269 2.03101 17.2691 2.03101 17C2.03101 16.7309 2.13947 16.4731 2.33189 16.285L6.4228 12.285ZM17.6392 2.28499C17.2443 1.89888 16.6112 1.906 16.2251 2.30088C15.839 2.69577 15.8461 3.3289 16.241 3.71501L18.5779 6L3.03101 6C2.47872 6 2.03101 6.44771 2.03101 7C2.03101 7.55228 2.47872 8 3.03101 8L18.5779 8L16.241 10.285C15.8461 10.6711 15.839 11.3042 16.2251 11.6991C16.6112 12.094 17.2443 12.1011 17.6392 11.715L21.7301 7.71501C21.9225 7.52687 22.031 7.26911 22.031 7C22.031 6.73089 21.9225 6.47313 21.7301 6.28499L17.6392 2.28499Z"
        fill="currentColor" />
</svg>
    