<svg width="25" height="24" viewBox="0 0 25 24" fill="none" xmlns="http://www.w3.org/2000/svg">
    <path fill-rule="evenodd" clip-rule="evenodd"
        d="M3.53101 5C2.97872 5 2.53101 5.44772 2.53101 6C2.53101 6.55228 2.97872 7 3.53101 7H21.5288C22.081 7 22.5288 6.55228 22.5288 6C22.5288 5.44772 22.081 5 21.5288 5H3.53101ZM3.53101 9C2.97872 9 2.53101 9.44772 2.53101 10C2.53101 10.5523 2.97872 11 3.53101 11H21.5288C22.081 11 22.5288 10.5523 22.5288 10C22.5288 9.44772 22.081 9 21.5288 9H3.53101ZM2.53101 14C2.53101 13.4477 2.97872 13 3.53101 13H21.5288C22.081 13 22.5288 13.4477 22.5288 14C22.5288 14.5523 22.081 15 21.5288 15H3.53101C2.97872 15 2.53101 14.5523 2.53101 14ZM3.53101 17C2.97872 17 2.53101 17.4477 2.53101 18C2.53101 18.5523 2.97872 19 3.53101 19H14.7796C15.3319 19 15.7796 18.5523 15.7796 18C15.7796 17.4477 15.3319 17 14.7796 17H3.53101Z"
        fill="currentColor" />
</svg>
    